<?xml version="1.0" standalone="no"?>
<!DOCTYPE svg PUBLIC "-//W3C//DTD SVG 20010904//EN"
 "http://www.w3.org/TR/2001/REC-SVG-20010904/DTD/svg10.dtd">
<svg version="1.0" xmlns="http://www.w3.org/2000/svg"
 width="512.000000pt" height="512.000000pt" viewBox="0 0 512.000000 512.000000"
 preserveAspectRatio="xMidYMid meet">
<metadata>
Created by potrace 1.14, written by Peter Selinger 2001-2017
</metadata>
<g transform="translate(0.000000,512.000000) scale(0.100000,-0.100000)"
fill="#000000" stroke="none">
<path d="M3430 4569 c-19 -6 -559 -268 -1200 -581 -641 -314 -1301 -637 -1467
-719 -267 -130 -309 -154 -356 -201 -95 -95 -140 -227 -118 -350 11 -62 64
-183 212 -480 l79 -158 27 11 c40 16 160 16 220 0 72 -18 165 -80 207 -138 62
-84 80 -143 81 -268 0 -105 -2 -114 -33 -177 -21 -42 -51 -83 -82 -111 -28
-25 -50 -49 -50 -54 0 -19 222 -478 247 -512 93 -122 249 -186 392 -161 79 14
22 -13 1026 480 451 222 892 438 980 480 88 43 348 170 578 283 379 187 422
211 477 263 40 38 72 81 93 123 30 62 32 73 32 171 l0 105 -120 258 -120 258
-40 -8 c-22 -5 -76 -8 -120 -7 -69 0 -91 5 -147 31 -153 72 -238 223 -225 398
8 109 40 180 112 250 l61 60 -149 299 c-169 338 -194 372 -315 429 -57 27 -80
32 -157 34 -49 1 -106 -2 -125 -8z m-819 -985 c106 -53 126 -209 37 -290 -12
-12 -217 -117 -455 -233 -478 -234 -484 -235 -568 -188 -52 29 -75 75 -75 150
0 118 15 130 400 319 453 223 511 250 545 258 36 8 80 2 116 -16z m965 -329
c85 -50 109 -167 50 -255 -25 -37 -72 -63 -774 -413 -411 -206 -762 -377 -781
-381 -110 -21 -208 74 -199 194 7 105 -32 80 809 501 841 420 806 406 895 354z
m-2493 -64 c24 -10 107 -146 107 -177 0 -25 -46 -62 -84 -70 -45 -8 -75 16
-112 88 -33 65 -32 120 2 147 29 23 50 26 87 12z m215 -418 c34 -30 92 -152
83 -177 -9 -25 -66 -66 -92 -66 -49 0 -139 139 -125 194 15 61 89 87 134 49z
m160 -384 c24 -8 40 -27 72 -86 23 -42 40 -86 38 -97 -4 -27 -63 -66 -99 -66
-35 0 -61 24 -94 89 -41 81 -31 143 25 164 22 8 24 8 58 -4z m198 -379 c22 -8
39 -30 72 -90 23 -44 42 -87 42 -95 0 -23 -64 -65 -99 -65 -41 0 -74 33 -107
105 -30 65 -26 104 13 135 29 23 39 24 79 10z m213 -399 c10 -6 36 -46 59 -90
36 -69 40 -83 31 -104 -16 -36 -69 -58 -112 -46 -29 8 -40 20 -71 78 -41 79
-44 108 -15 145 22 28 72 36 108 17z"/>
<path d="M4515 1804 c-22 -12 -452 -196 -955 -409 -503 -213 -1084 -460 -1290
-547 -206 -88 -391 -163 -410 -167 l-35 -6 44 -47 c24 -26 68 -60 98 -75 106
-51 53 -64 1318 316 627 188 1159 351 1182 361 91 40 163 154 163 258 0 42
-51 283 -68 323 -6 13 -12 13 -47 -7z"/>
</g>
</svg>
